<svg width="34" height="29" viewBox="0 0 34 29" fill="none" xmlns="http://www.w3.org/2000/svg">
<path fill-rule="evenodd" clip-rule="evenodd" d="M15.0875 28.5758C15.9499 29.076 16.9035 29.1093 17.7231 28.8041C18.1244 28.7554 18.5276 28.6252 18.9126 28.4018L27.118 23.6423L15.6129 16.9798L15.4912 17.0502L15.3697 16.839L5.37013 11.0483L0.844542 15.8831C-0.529334 17.3506 -0.181193 19.7192 1.55614 20.7269L15.0875 28.5758ZM8.29053 7.92852L14.6204 1.16633C14.7528 1.02493 14.8922 0.899685 15.0371 0.790059C16.2111 -0.23772 18.1177 -0.355678 19.3797 0.992386L24.8399 6.82575L15.6129 12.1688L8.29053 7.92852ZM27.7603 9.94528L19.7668 14.5743L31.129 21.1542L30.9894 21.3967L32.444 20.553C34.1813 19.5453 34.5292 17.1767 33.1556 15.7091L27.7603 9.94528Z" fill="#E2C196"/>
<path fill-rule="evenodd" clip-rule="evenodd" d="M25.4667 7.17435L15.7005 12.794L8 8.3632L14.75 1.1977C14.8868 1.0525 15.0309 0.923886 15.1806 0.811311C16.3938 -0.244114 18.3641 -0.365246 19.6683 1.01908L25.4667 7.17435Z" fill="#69BB44"/>
</svg>
